<?xml version="1.0" encoding="UTF-8"?>
<svg width="154px" height="58px" viewBox="0 0 154 58" version="1.1" xmlns="http://www.w3.org/2000/svg" xmlns:xlink="http://www.w3.org/1999/xlink">
    <!-- Generator: Sketch 51.3 (57544) - http://www.bohemiancoding.com/sketch -->
    <title>Logo</title>
    <desc>Created with Sketch.</desc>
    <defs></defs>
    <g id="Scratchpad" stroke="none" stroke-width="1" fill="none" fill-rule="evenodd">
        <g id="square-ccdl" transform="translate(-17.000000, -255.000000)">
            <g id="Logo" transform="translate(16.000000, 255.000000)">
                <path d="M35,24.57125 L35,13.175 L36.1003636,13.175 C36.3089303,13.175 36.4527673,13.2162496 36.5318788,13.29875 C36.6109903,13.3812504 36.6649291,13.523749 36.693697,13.72625 L36.8231515,15.50375 C37.1971332,14.708746 37.6592094,14.0881272 38.2093939,13.641875 C38.7595785,13.1956228 39.4050468,12.9725 40.1458182,12.9725 C40.4478803,12.9725 40.7211705,13.0081246 40.965697,13.079375 C41.2102234,13.1506254 41.4367666,13.2499994 41.6453333,13.3775 L41.3972121,14.87375 C41.3468684,15.0612509 41.2353948,15.155 41.0627879,15.155 C40.9621005,15.155 40.8074758,15.1193754 40.5989091,15.048125 C40.3903424,14.9768746 40.0990726,14.94125 39.7250909,14.94125 C39.0562391,14.94125 38.497073,15.143748 38.0475758,15.54875 C37.5980786,15.953752 37.2223045,16.5424961 36.9202424,17.315 L36.9202424,24.57125 L35,24.57125 Z M48.0209697,12.995 C48.6754376,12.995 49.2795528,13.1093739 49.8333333,13.338125 C50.3871139,13.5668761 50.8653717,13.8968728 51.2681212,14.328125 C51.6708707,14.7593772 51.985514,15.2918718 52.2120606,15.925625 C52.4386072,16.5593782 52.5518788,17.2812459 52.5518788,18.09125 C52.5518788,18.4062516 52.5195155,18.6162495 52.4547879,18.72125 C52.3900603,18.8262505 52.2677989,18.87875 52.088,18.87875 L44.8169697,18.87875 C44.8313536,19.5987536 44.9248476,20.2249973 45.0974545,20.7575 C45.2700615,21.2900027 45.5073924,21.7343732 45.8094545,22.090625 C46.1115167,22.4468768 46.471109,22.7131241 46.8882424,22.889375 C47.3053758,23.0656259 47.7728459,23.15375 48.2906667,23.15375 C48.7725277,23.15375 49.1878568,23.0956256 49.5366667,22.979375 C49.8854765,22.8631244 50.1857361,22.7375007 50.4374545,22.6025 C50.689173,22.4674993 50.8995345,22.3418756 51.0685455,22.225625 C51.2375564,22.1093744 51.3831913,22.05125 51.5054545,22.05125 C51.6636776,22.05125 51.785939,22.1149994 51.8722424,22.2425 L52.4116364,22.97375 C52.1743018,23.2737515 51.8902239,23.5343739 51.5593939,23.755625 C51.228564,23.9768761 50.8743655,24.1587493 50.4967879,24.30125 C50.1192102,24.4437507 49.7290525,24.5506246 49.326303,24.621875 C48.9235535,24.6931254 48.524406,24.72875 48.1288485,24.72875 C47.3736932,24.72875 46.677882,24.5956263 46.0413939,24.329375 C45.4049059,24.0631237 44.8547296,23.6731276 44.3908485,23.159375 C43.9269674,22.6456224 43.5655771,22.0100038 43.3066667,21.2525 C43.0477563,20.4949962 42.918303,19.6250049 42.918303,18.6425 C42.918303,17.847496 43.0351705,17.1050034 43.2689091,16.415 C43.5026476,15.7249965 43.8388665,15.1268775 44.2775758,14.620625 C44.716285,14.1143725 45.2520776,13.7168764 45.8849697,13.428125 C46.5178618,13.1393736 47.2298546,12.995 48.0209697,12.995 Z M48.0641212,14.46875 C47.136359,14.46875 46.4063865,14.7481222 45.8741818,15.306875 C45.3419771,15.8656278 45.0111522,16.639995 44.881697,17.63 L50.8258182,17.63 C50.8258182,17.1649977 50.7646875,16.7393769 50.6424242,16.353125 C50.520161,15.9668731 50.3403648,15.6331264 50.1030303,15.351875 C49.8656958,15.0706236 49.5762239,14.8531258 49.2346061,14.699375 C48.8929882,14.5456242 48.5028305,14.46875 48.0641212,14.46875 Z M55.4322424,24.57125 L55.4322424,14.885 L54.224,14.73875 C54.0729689,14.7012498 53.9489096,14.6431254 53.8518182,14.564375 C53.7547268,14.4856246 53.7061818,14.3712507 53.7061818,14.22125 L53.7061818,13.4 L55.4322424,13.4 L55.4322424,12.77 C55.4322424,12.0724965 55.5365242,11.4331279 55.7450909,10.851875 C55.9536576,10.2706221 56.266503,9.7700021 56.6836364,9.35 C57.1007698,8.9299979 57.6203807,8.60375116 58.2424848,8.37125 C58.864589,8.13874884 59.5891676,8.0225 60.4162424,8.0225 C60.6895367,8.0225 60.9682208,8.04124981 61.252303,8.07875 C61.5363853,8.11625019 61.782706,8.17249962 61.9912727,8.2475 L61.9265455,9.29375 C61.9121615,9.39125049 61.8690105,9.45312487 61.7970909,9.479375 C61.7251714,9.50562513 61.6208896,9.51875 61.4842424,9.51875 C61.4051309,9.51875 61.3224247,9.51687502 61.2361212,9.513125 C61.1498178,9.50937498 61.0527278,9.5075 60.9448485,9.5075 C59.6718724,9.5075 58.7459221,9.78312224 58.1669697,10.334375 C57.5880173,10.8856278 57.2985455,11.7162444 57.2985455,12.82625 L57.2985455,13.4 L63.9007273,13.4 L63.9007273,24.57125 L61.9804848,24.57125 L61.9804848,14.85125 L57.3632727,14.85125 L57.3632727,24.57125 L55.4322424,24.57125 Z M67.2989091,24.57125 L67.2989091,13.175 L68.4424242,13.175 C68.7157185,13.175 68.8883229,13.3137486 68.9602424,13.59125 L69.1112727,14.82875 C69.5859418,14.2812473 70.1163405,13.8387517 70.7024848,13.50125 C71.2886292,13.1637483 71.9664608,12.995 72.736,12.995 C73.3329323,12.995 73.8597351,13.098124 74.3164242,13.304375 C74.7731134,13.510626 75.1542813,13.8031231 75.4599394,14.181875 C75.7655975,14.5606269 75.9975346,15.0162473 76.1557576,15.54875 C76.3139806,16.0812527 76.3930909,16.6699968 76.3930909,17.315 L76.3930909,24.57125 L74.4728485,24.57125 L74.4728485,17.315 C74.4728485,16.4524957 74.2840625,15.7831274 73.9064848,15.306875 C73.5289072,14.8306226 72.9517615,14.5925 72.1750303,14.5925 C71.6068658,14.5925 71.0764671,14.7349986 70.5838182,15.02 C70.0911693,15.3050014 69.6362849,15.6912476 69.2191515,16.17875 L69.2191515,24.57125 L67.2989091,24.57125 Z M83.6209697,12.995 C84.2754376,12.995 84.8795528,13.1093739 85.4333333,13.338125 C85.9871139,13.5668761 86.4653717,13.8968728 86.8681212,14.328125 C87.2708707,14.7593772 87.585514,15.2918718 87.8120606,15.925625 C88.0386072,16.5593782 88.1518788,17.2812459 88.1518788,18.09125 C88.1518788,18.4062516 88.1195155,18.6162495 88.0547879,18.72125 C87.9900603,18.8262505 87.8677989,18.87875 87.688,18.87875 L80.4169697,18.87875 C80.4313536,19.5987536 80.5248476,20.2249973 80.6974545,20.7575 C80.8700615,21.2900027 81.1073924,21.7343732 81.4094545,22.090625 C81.7115167,22.4468768 82.071109,22.7131241 82.4882424,22.889375 C82.9053758,23.0656259 83.3728459,23.15375 83.8906667,23.15375 C84.3725277,23.15375 84.7878568,23.0956256 85.1366667,22.979375 C85.4854765,22.8631244 85.7857361,22.7375007 86.0374545,22.6025 C86.289173,22.4674993 86.4995345,22.3418756 86.6685455,22.225625 C86.8375564,22.1093744 86.9831913,22.05125 87.1054545,22.05125 C87.2636776,22.05125 87.385939,22.1149994 87.4722424,22.2425 L88.0116364,22.97375 C87.7743018,23.2737515 87.4902239,23.5343739 87.1593939,23.755625 C86.828564,23.9768761 86.4743655,24.1587493 86.0967879,24.30125 C85.7192102,24.4437507 85.3290525,24.5506246 84.926303,24.621875 C84.5235535,24.6931254 84.124406,24.72875 83.7288485,24.72875 C82.9736932,24.72875 82.277882,24.5956263 81.6413939,24.329375 C81.0049059,24.0631237 80.4547296,23.6731276 79.9908485,23.159375 C79.5269674,22.6456224 79.1655771,22.0100038 78.9066667,21.2525 C78.6477563,20.4949962 78.518303,19.6250049 78.518303,18.6425 C78.518303,17.847496 78.6351705,17.1050034 78.8689091,16.415 C79.1026476,15.7249965 79.4388665,15.1268775 79.8775758,14.620625 C80.316285,14.1143725 80.8520776,13.7168764 81.4849697,13.428125 C82.1178618,13.1393736 82.8298546,12.995 83.6209697,12.995 Z M83.6641212,14.46875 C82.736359,14.46875 82.0063865,14.7481222 81.4741818,15.306875 C80.9419771,15.8656278 80.6111522,16.639995 80.481697,17.63 L86.4258182,17.63 C86.4258182,17.1649977 86.3646875,16.7393769 86.2424242,16.353125 C86.120161,15.9668731 85.9403648,15.6331264 85.7030303,15.351875 C85.4656958,15.0706236 85.1762239,14.8531258 84.8346061,14.699375 C84.4929882,14.5456242 84.1028305,14.46875 83.6641212,14.46875 Z M89.9750303,23.33375 C89.9750303,23.138749 90.0091916,22.9550009 90.0775152,22.7825 C90.1458387,22.6099991 90.2393327,22.4600006 90.358,22.3325 C90.4766673,22.2049994 90.6187062,22.1037504 90.7841212,22.02875 C90.9495362,21.9537496 91.1257364,21.91625 91.3127273,21.91625 C91.4997181,21.91625 91.6759184,21.9537496 91.8413333,22.02875 C92.0067483,22.1037504 92.1505852,22.2049994 92.2728485,22.3325 C92.3951117,22.4600006 92.4904037,22.6099991 92.5587273,22.7825 C92.6270508,22.9550009 92.6612121,23.138749 92.6612121,23.33375 C92.6612121,23.536251 92.6270508,23.7218742 92.5587273,23.890625 C92.4904037,24.0593758 92.3951117,24.2074994 92.2728485,24.335 C92.1505852,24.4625006 92.0067483,24.5618746 91.8413333,24.633125 C91.6759184,24.7043754 91.4997181,24.74 91.3127273,24.74 C91.1257364,24.74 90.9495362,24.7043754 90.7841212,24.633125 C90.6187062,24.5618746 90.4766673,24.4625006 90.358,24.335 C90.2393327,24.2074994 90.1458387,24.0593758 90.0775152,23.890625 C90.0091916,23.7218742 89.9750303,23.536251 89.9750303,23.33375 Z M95.2395152,24.57125 L95.2395152,8 L97.1705455,8 L97.1705455,14.8175 C97.6236386,14.2699973 98.1432496,13.8293767 98.7293939,13.495625 C99.3155383,13.1618733 99.986178,12.995 100.741333,12.995 C101.374225,12.995 101.945977,13.1187488 102.456606,13.36625 C102.967235,13.6137512 103.402342,13.9831225 103.761939,14.474375 C104.121537,14.9656275 104.398423,15.5731214 104.592606,16.296875 C104.786789,17.0206286 104.883879,17.8549953 104.883879,18.8 C104.883879,19.6400042 104.776001,20.4218714 104.560242,21.145625 C104.344484,21.8693786 104.033436,22.4956224 103.627091,23.024375 C103.220745,23.5531276 102.724508,23.9693735 102.138364,24.273125 C101.552219,24.5768765 100.892367,24.72875 100.158788,24.72875 C99.4539763,24.72875 98.855255,24.5862514 98.3626061,24.30125 C97.8699571,24.0162486 97.4402443,23.6187525 97.0734545,23.10875 L96.9763636,24.14375 C96.918828,24.4287514 96.7534155,24.57125 96.4801212,24.57125 L95.2395152,24.57125 Z M100.115636,14.5925 C99.4899363,14.5925 98.9415579,14.7424985 98.4704848,15.0425 C97.9994118,15.3425015 97.566103,15.7662473 97.1705455,16.31375 L97.1705455,21.82625 C97.5157593,22.3212525 97.8987252,22.669999 98.3194545,22.8725 C98.7401839,23.075001 99.209452,23.17625 99.7272727,23.17625 C100.74853,23.17625 101.532442,22.7975038 102.07903,22.04 C102.625619,21.2824962 102.898909,20.202507 102.898909,18.8 C102.898909,18.0574963 102.83598,17.4200027 102.710121,16.8875 C102.584262,16.3549973 102.402668,15.9181267 102.165333,15.576875 C101.927999,15.2356233 101.636729,14.9862508 101.291515,14.82875 C100.946301,14.6712492 100.554346,14.5925 100.115636,14.5925 Z M109.371636,13.175 L109.371636,24.57125 L107.451394,24.57125 L107.451394,13.175 L109.371636,13.175 Z M109.803152,9.5975 C109.803152,9.79250097 109.765394,9.97437416 109.689879,10.143125 C109.614363,10.3118758 109.513677,10.4618743 109.387818,10.593125 C109.261959,10.7243757 109.116324,10.8274996 108.950909,10.9025 C108.785494,10.9775004 108.609294,11.015 108.422303,11.015 C108.235312,11.015 108.06091,10.9775004 107.899091,10.9025 C107.737272,10.8274996 107.593435,10.7243757 107.467576,10.593125 C107.341717,10.4618743 107.242829,10.3118758 107.170909,10.143125 C107.09899,9.97437416 107.06303,9.79250097 107.06303,9.5975 C107.06303,9.40249902 107.09899,9.21687588 107.170909,9.040625 C107.242829,8.86437412 107.341717,8.71062566 107.467576,8.579375 C107.593435,8.44812434 107.737272,8.34500038 107.899091,8.27 C108.06091,8.19499962 108.235312,8.1575 108.422303,8.1575 C108.609294,8.1575 108.785494,8.19499962 108.950909,8.27 C109.116324,8.34500038 109.261959,8.44812434 109.387818,8.579375 C109.513677,8.71062566 109.614363,8.86437412 109.689879,9.040625 C109.765394,9.21687588 109.803152,9.40249902 109.803152,9.5975 Z M117.182061,12.995 C117.980368,12.995 118.70135,13.1337486 119.34503,13.41125 C119.98871,13.6887514 120.535291,14.0824974 120.984788,14.5925 C121.434285,15.1025025 121.779494,15.7193714 122.020424,16.443125 C122.261355,17.1668786 122.381818,17.9749955 122.381818,18.8675 C122.381818,19.7675045 122.261355,20.5774964 122.020424,21.2975 C121.779494,22.0175036 121.434285,22.6324974 120.984788,23.1425 C120.535291,23.6525025 119.98871,24.0443736 119.34503,24.318125 C118.70135,24.5918764 117.980368,24.72875 117.182061,24.72875 C116.383754,24.72875 115.662771,24.5918764 115.019091,24.318125 C114.375411,24.0443736 113.827033,23.6525025 113.373939,23.1425 C112.920846,22.6324974 112.572042,22.0175036 112.327515,21.2975 C112.082989,20.5774964 111.960727,19.7675045 111.960727,18.8675 C111.960727,17.9749955 112.082989,17.1668786 112.327515,16.443125 C112.572042,15.7193714 112.920846,15.1025025 113.373939,14.5925 C113.827033,14.0824974 114.375411,13.6887514 115.019091,13.41125 C115.662771,13.1337486 116.383754,12.995 117.182061,12.995 Z M117.182061,23.165 C118.260854,23.165 119.066341,22.7881288 119.598545,22.034375 C120.13075,21.2806212 120.396848,20.2287567 120.396848,18.87875 C120.396848,17.5212432 120.13075,16.4637538 119.598545,15.70625 C119.066341,14.9487462 118.260854,14.57 117.182061,14.57 C116.635472,14.57 116.16081,14.667499 115.758061,14.8625 C115.355311,15.057501 115.019092,15.3387482 114.749394,15.70625 C114.479696,16.0737518 114.278324,16.5256223 114.145273,17.061875 C114.012222,17.5981277 113.945697,18.2037466 113.945697,18.87875 C113.945697,19.5537534 114.012222,20.1574973 114.145273,20.69 C114.278324,21.2225027 114.479696,21.6706232 114.749394,22.034375 C115.019092,22.3981268 115.355311,22.677499 115.758061,22.8725 C116.16081,23.067501 116.635472,23.165 117.182061,23.165 Z" id="refine.bio" fill="#002F6C"></path>
                <g id="DNA">
                    <g id="shell" fill="#002F6C" fill-rule="nonzero">
                        <path d="M14.4074863,27.9009985 C11.692538,24.3263996 9.00025837,20.7068887 6.80720285,17.1808501 C4.19156591,12.9753766 1.60257584,6.3822207 1.60257584,1.38294806 C1.60257584,-0.227659203 3.75208119,-0.22754033 3.75208119,1.38294806 C3.75208119,8.7593145 9.9011316,18.2373463 15.7357604,26.1199222 C21.5493996,18.2345337 27.5956018,8.74298742 27.5956018,1.36647059 C27.5956018,-0.2440178 29.5498965,-0.244136673 29.5498965,1.36647059 C29.5498965,10.8655442 23.0906736,19.5456431 16.8899418,27.6652563 C17.1649529,28.0304475 17.4382733,28.3914497 17.7092012,28.7478615 C24.3701188,37.5105683 30.1710501,45.702059 30.1710501,56.0839319 C30.1709451,57.6944203 28.4813803,57.6944203 28.4813803,56.0839319 C28.4813803,47.8667323 23.0424181,39.2561305 16.7161102,30.9337285 C16.3314824,30.427743 15.9445489,29.9200347 15.5567037,29.4110084 C15.4286107,29.5790533 15.3008425,29.746862 15.1734598,29.9144364 C8.84715196,38.2368385 2.99424064,47.8667323 2.99424064,56.0839319 C2.99424064,57.6944203 1.30467582,57.6944203 1.30457086,56.0839319 C1.30457086,45.702059 7.10550215,37.5105683 13.7664198,28.7478615 C13.9788911,28.4683507 14.1926895,28.185998 14.4074863,27.9009985 Z" id="Combined-Shape"></path>
                    </g>
                    <g id="BottomPairs" transform="translate(17.000000, 42.500000) scale(1, -1) translate(-17.000000, -42.500000) translate(5.000000, 31.000000)" stroke="#002F6C">
                        <g id="BasePair" transform="translate(13.669492, 2.000000) scale(-1, 1) translate(-13.669492, -2.000000) translate(4.169492, 0.000000)">
                            <path d="M0.0993716624,1.51904762 L15.8453125,1.51904762" id="Line" stroke-width="2" stroke-linecap="square"></path>
                            <ellipse id="Oval" cx="17.5908985" cy="1.51904762" rx="1.35314604" ry="1.51904762"></ellipse>
                        </g>
                        <g id="BasePair-Copy" transform="translate(-0.000000, 5.000000)">
                            <path d="M0.319396419,2.51904762 L13.3244378,2.51904762" id="Line" stroke-width="2" stroke-linecap="square"></path>
                            <ellipse id="Oval" cx="15.0654748" cy="2.51904762" rx="1.35314604" ry="1.51904762"></ellipse>
                        </g>
                        <g id="BasePair-Copy" transform="translate(5.152542, 16.238095)">
                            <path d="M0.838244206,2.51904762 L4.04359436,2.51904762" id="Line" stroke-width="2" stroke-linecap="square"></path>
                            <ellipse id="Oval" cx="5.7891804" cy="2.51904762" rx="1.35314604" ry="1.51904762"></ellipse>
                        </g>
                        <g id="BasePair" transform="translate(12.567797, 13.000000) scale(-1, 1) translate(-12.567797, -13.000000) translate(6.067797, 11.000000)">
                            <path d="M0.0534463707,1.51904762 L9.44758786,1.51904762" id="Line" stroke-width="2" stroke-linecap="square"></path>
                            <ellipse id="Oval" cx="11.1931739" cy="1.51904762" rx="1.35314604" ry="1.51904762"></ellipse>
                        </g>
                    </g>
                    <g id="TopPairs" transform="translate(5.000000, 2.000000)" stroke="#002F6C">
                        <g id="BasePair" transform="translate(13.500000, 2.000000) scale(-1, 1) translate(-13.500000, -2.000000) translate(4.000000, 0.000000)">
                            <path d="M0.0993716624,1.51904762 L15.8453125,1.51904762" id="Line" stroke-width="2" stroke-linecap="square"></path>
                            <ellipse id="Oval" cx="17.5908985" cy="1.51904762" rx="1.35314604" ry="1.51904762"></ellipse>
                        </g>
                        <g id="BasePair-Copy" transform="translate(0.000000, 5.000000)">
                            <path d="M0.319396419,2.51904762 L13.3244378,2.51904762" id="Line" stroke-width="2" stroke-linecap="square"></path>
                            <ellipse id="Oval" cx="15.0654748" cy="2.51904762" rx="1.35314604" ry="1.51904762"></ellipse>
                        </g>
                        <g id="BasePair-Copy" transform="translate(5.000000, 16.000000)">
                            <path d="M0.838244206,2.51904762 L4.04359436,2.51904762" id="Line" stroke-width="2" stroke-linecap="square"></path>
                            <ellipse id="Oval" cx="5.7891804" cy="2.51904762" rx="1.35314604" ry="1.51904762"></ellipse>
                        </g>
                        <g id="BasePair" transform="translate(12.500000, 13.000000) scale(-1, 1) translate(-12.500000, -13.000000) translate(6.000000, 11.000000)">
                            <path d="M0.0534463707,1.51904762 L9.44758786,1.51904762" id="Line" stroke-width="2" stroke-linecap="square"></path>
                            <ellipse id="Oval" cx="11.1931739" cy="1.51904762" rx="1.35314604" ry="1.51904762"></ellipse>
                        </g>
                    </g>
                </g>
                <path d="M123,13.257 L124.602,0 L126.177,0 L125.385,6.444 C125.613001,6.07799817 125.858999,5.74350151 126.123,5.4405 C126.387001,5.13749848 126.662999,4.88100105 126.951,4.671 C127.239001,4.46099895 127.538998,4.29750059 127.851,4.1805 C128.163002,4.06349942 128.480998,4.005 128.805,4.005 C129.579004,4.005 130.181998,4.28699718 130.614,4.851 C131.046002,5.41500282 131.262,6.23999457 131.262,7.326 C131.262,7.81800246 131.211001,8.30999754 131.109,8.802 C131.006999,9.29400246 130.861501,9.76349776 130.6725,10.2105 C130.483499,10.6575022 130.255501,11.0744981 129.9885,11.4615 C129.721499,11.8485019 129.424502,12.1844986 129.0975,12.4695 C128.770498,12.7545014 128.415002,12.9779992 128.031,13.14 C127.646998,13.3020008 127.245002,13.383 126.825,13.383 C126.338998,13.383 125.899502,13.281001 125.5065,13.077 C125.113498,12.872999 124.791001,12.5820019 124.539,12.204 L124.422,12.789 C124.374,12.9450008 124.3125,13.0619996 124.2375,13.14 C124.1625,13.2180004 124.035001,13.257 123.855,13.257 L123,13.257 Z M128.202,5.292 C127.913999,5.292 127.623001,5.3819991 127.329,5.562 C127.034999,5.7420009 126.751501,5.99099841 126.4785,6.309 C126.205499,6.62700159 125.949001,7.00499781 125.709,7.443 C125.468999,7.88100219 125.262001,8.36099739 125.088,8.883 L124.8,11.25 C125.028001,11.5740016 125.300998,11.8034993 125.619,11.9385 C125.937002,12.0735007 126.260998,12.141 126.591,12.141 C126.903002,12.141 127.196999,12.0750007 127.473,11.943 C127.749001,11.8109993 128.000999,11.6325011 128.229,11.4075 C128.457001,11.1824989 128.660999,10.9185015 128.841,10.6155 C129.021001,10.3124985 129.172499,9.98850173 129.2955,9.6435 C129.418501,9.29849828 129.513,8.94150185 129.579,8.5725 C129.645,8.20349816 129.678,7.8390018 129.678,7.479 C129.678,6.76499643 129.549001,6.22200186 129.291,5.85 C129.032999,5.47799814 128.670002,5.292 128.202,5.292 Z M139.668,6.093 C139.668,6.48900198 139.587001,6.85349834 139.425,7.1865 C139.262999,7.51950166 138.966002,7.81949867 138.534,8.0865 C138.101998,8.35350134 137.508004,8.58599901 136.752,8.784 C135.995996,8.98200099 135.024006,9.1409994 133.836,9.261 C133.83,9.32700033 133.827,9.39149969 133.827,9.4545 L133.827,9.648 C133.827,10.452004 134.002498,11.0654979 134.3535,11.4885 C134.704502,11.9115021 135.233996,12.123 135.942,12.123 C136.230001,12.123 136.486499,12.0930003 136.7115,12.033 C136.936501,11.9729997 137.137499,11.8995004 137.3145,11.8125 C137.491501,11.7254996 137.647499,11.6295005 137.7825,11.5245 C137.917501,11.4194995 138.041999,11.3235004 138.156,11.2365 C138.270001,11.1494996 138.375,11.0760003 138.471,11.016 C138.567,10.9559997 138.663,10.926 138.759,10.926 C138.867001,10.926 138.966,10.9769995 139.056,11.079 L139.452,11.574 C139.145998,11.8920016 138.847501,12.1634989 138.5565,12.3885 C138.265499,12.6135011 137.967002,12.8009993 137.661,12.951 C137.354998,13.1010008 137.035502,13.2104997 136.7025,13.2795 C136.369498,13.3485003 136.011002,13.383 135.627,13.383 C135.104997,13.383 134.637002,13.2960009 134.223,13.122 C133.808998,12.9479991 133.458001,12.7005016 133.17,12.3795 C132.881999,12.0584984 132.660001,11.6700023 132.504,11.214 C132.347999,10.7579977 132.27,10.2480028 132.27,9.684 C132.27,9.21599766 132.3195,8.74950233 132.4185,8.2845 C132.5175,7.81949768 132.661499,7.3770021 132.8505,6.957 C133.039501,6.5369979 133.270499,6.1470018 133.5435,5.787 C133.816501,5.4269982 134.128498,5.1165013 134.4795,4.8555 C134.830502,4.5944987 135.217498,4.38900075 135.6405,4.239 C136.063502,4.08899925 136.517998,4.014 137.004,4.014 C137.466002,4.014 137.864998,4.07999934 138.201,4.212 C138.537002,4.34400066 138.812999,4.51199898 139.029,4.716 C139.245001,4.92000102 139.405499,5.14499877 139.5105,5.391 C139.615501,5.63700123 139.668,5.87099889 139.668,6.093 Z M136.914,5.166 C136.535998,5.166 136.188002,5.24399922 135.87,5.4 C135.551998,5.55600078 135.270001,5.77049864 135.024,6.0435 C134.777999,6.31650137 134.568001,6.63749815 134.394,7.0065 C134.219999,7.37550184 134.085,7.77299787 133.989,8.199 C134.913005,8.08499943 135.653997,7.95450073 136.212,7.8075 C136.770003,7.66049927 137.198999,7.50150085 137.499,7.3305 C137.799002,7.15949915 137.997,6.97500099 138.093,6.777 C138.189,6.57899901 138.237,6.37200108 138.237,6.156 C138.237,6.04799946 138.213,5.93550058 138.165,5.8185 C138.117,5.70149942 138.040501,5.59500048 137.9355,5.499 C137.830499,5.40299952 137.694001,5.32350032 137.526,5.2605 C137.357999,5.19749969 137.154001,5.166 136.914,5.166 Z M141.468,11.538 C141.468,11.5019998 141.4695,11.4555003 141.4725,11.3985 C141.4755,11.3414997 141.4815,11.2590005 141.4905,11.151 C141.4995,11.0429995 141.513,10.9020009 141.531,10.728 C141.549,10.5539991 141.576,10.3260014 141.612,10.044 L142.179,5.481 L141.162,5.481 C141.084,5.481 141.0195,5.45850022 140.9685,5.4135 C140.9175,5.36849977 140.892,5.29800048 140.892,5.202 C140.892,5.18399991 140.895,5.14800027 140.901,5.094 C140.907,5.03999973 140.9145,4.97850034 140.9235,4.9095 C140.9325,4.84049966 140.9415,4.77000036 140.9505,4.698 C140.9595,4.62599964 140.967,4.55700033 140.973,4.491 L142.377,4.302 L143.052,1.485 C143.076,1.39499955 143.121,1.32150028 143.187,1.2645 C143.253,1.20749971 143.334,1.179 143.43,1.179 L144.276,1.179 L143.88,4.32 L146.274,4.32 L146.139,5.481 L143.736,5.481 L143.187,9.963 C143.157,10.2090012 143.1345,10.4069992 143.1195,10.557 L143.0835,10.917 C143.0745,11.0070004 143.0685,11.0699998 143.0655,11.106 C143.0625,11.1420002 143.061,11.1689999 143.061,11.187 C143.061,11.4930015 143.131499,11.7194993 143.2725,11.8665 C143.413501,12.0135007 143.606999,12.087 143.853,12.087 C144.009001,12.087 144.146999,12.0645002 144.267,12.0195 C144.387001,11.9744998 144.4905,11.9250003 144.5775,11.871 C144.6645,11.8169997 144.738,11.7675002 144.798,11.7225 C144.858,11.6774998 144.912,11.655 144.96,11.655 C145.008,11.655 145.0455,11.6669999 145.0725,11.691 C145.0995,11.7150001 145.128,11.7539997 145.158,11.808 L145.491,12.573 C145.202999,12.8310013 144.871502,13.0334993 144.4965,13.1805 C144.121498,13.3275007 143.745002,13.401 143.367,13.401 C142.784997,13.401 142.326002,13.2420016 141.99,12.924 C141.653998,12.6059984 141.48,12.144003 141.468,11.538 Z M153.546,13.257 L152.718,13.257 C152.507999,13.257 152.3655,13.2030005 152.2905,13.095 C152.2155,12.9869995 152.178,12.8550008 152.178,12.699 L152.34,10.854 C152.123999,11.2380019 151.891501,11.5859984 151.6425,11.898 C151.393499,12.2100016 151.129501,12.4754989 150.8505,12.6945 C150.571499,12.9135011 150.279002,13.0829994 149.973,13.203 C149.666998,13.3230006 149.349002,13.383 149.019,13.383 C148.658998,13.383 148.332001,13.3125007 148.038,13.1715 C147.743999,13.0304993 147.493501,12.8235014 147.2865,12.5505 C147.079499,12.2774986 146.919001,11.941502 146.805,11.5425 C146.690999,11.143498 146.634,10.6860026 146.634,10.17 C146.634,9.6299973 146.701499,9.10350257 146.8365,8.5905 C146.971501,8.07749744 147.163499,7.59300228 147.4125,7.137 C147.661501,6.68099772 147.959998,6.26250191 148.308,5.8815 C148.656002,5.5004981 149.044498,5.1705014 149.4735,4.8915 C149.902502,4.6124986 150.362998,4.39650076 150.855,4.2435 C151.347002,4.09049923 151.862997,4.014 152.403,4.014 C152.793002,4.014 153.172498,4.04549969 153.5415,4.1085 C153.910502,4.17150032 154.274998,4.28099922 154.635,4.437 L153.546,13.257 Z M149.622,12.051 C149.916001,12.051 150.203999,11.9595009 150.486,11.7765 C150.768001,11.5934991 151.034999,11.3400016 151.287,11.016 C151.539001,10.6919984 151.774499,10.3065022 151.9935,9.8595 C152.212501,9.41249777 152.405999,8.92200267 152.574,8.388 L152.961,5.256 C152.828999,5.22599985 152.698501,5.20650005 152.5695,5.1975 C152.440499,5.18849996 152.313001,5.184 152.187,5.184 C151.826998,5.184 151.479002,5.24249942 151.143,5.3595 C150.806998,5.47650059 150.492001,5.63999895 150.198,5.85 C149.903999,6.06000105 149.637001,6.31049855 149.397,6.6015 C149.156999,6.89250146 148.951501,7.21199826 148.7805,7.56 C148.609499,7.90800174 148.476,8.27849804 148.38,8.6715 C148.284,9.06450197 148.236,9.46799793 148.236,9.882 C148.236,11.3280072 148.697995,12.051 149.622,12.051 Z" id="beta" fill="#002F6C"></path>
                <path d="M43.657,50.203 C43.3783319,50.203 43.2023337,50.0673347 43.129,49.796 L42.953,48.443 C42.4763309,49.0223362 41.9318364,49.4861649 41.3195,49.8345 C40.7071636,50.1828351 40.005004,50.357 39.213,50.357 C38.5749968,50.357 37.9956693,50.2341679 37.475,49.9885 C36.9543307,49.7428321 36.5106685,49.381669 36.144,48.905 C35.7773315,48.428331 35.495001,47.8343369 35.297,47.123 C35.098999,46.4116631 35,45.5940046 35,44.67 C35,43.8486626 35.1099989,43.0841702 35.33,42.3765 C35.5500011,41.6688298 35.8671646,41.0546693 36.2815,40.534 C36.6958354,40.0133307 37.199997,39.6045015 37.794,39.3075 C38.388003,39.0104985 39.0626629,38.862 39.818,38.862 C40.5000034,38.862 41.0829976,38.9774988 41.567,39.2085 C42.0510024,39.4395012 42.4836648,39.7639979 42.865,40.182 L42.865,34 L44.823,34 L44.823,50.203 L43.657,50.203 Z M39.862,48.773 C40.5000032,48.773 41.0591643,48.6263348 41.5395,48.333 C42.0198357,48.0396652 42.4616646,47.625336 42.865,47.09 L42.865,41.7 C42.5056649,41.2159976 42.1115021,40.8768343 41.6825,40.6825 C41.2534979,40.4881657 40.7786693,40.391 40.258,40.391 C39.2166615,40.391 38.4173361,40.7613296 37.86,41.502 C37.3026639,42.2426704 37.024,43.2986598 37.024,44.67 C37.024,45.3960036 37.0863327,46.0174974 37.211,46.5345 C37.3356673,47.0515026 37.5189988,47.4768317 37.761,47.8105 C38.0030012,48.1441683 38.2999982,48.3879992 38.652,48.542 C39.0040018,48.6960008 39.4073311,48.773 39.862,48.773 Z M52.622,38.884 C53.4360041,38.884 54.1711634,39.0196653 54.8275,39.291 C55.4838366,39.5623347 56.0411644,39.9473308 56.4995,40.446 C56.9578356,40.9446692 57.3098321,41.5478298 57.5555,42.2555 C57.8011679,42.9631702 57.924,43.753329 57.924,44.626 C57.924,45.5060044 57.8011679,46.2979965 57.5555,47.002 C57.3098321,47.7060035 56.9578356,48.3073308 56.4995,48.806 C56.0411644,49.3046692 55.4838366,49.687832 54.8275,49.9555 C54.1711634,50.223168 53.4360041,50.357 52.622,50.357 C51.8079959,50.357 51.0728366,50.223168 50.4165,49.9555 C49.7601634,49.687832 49.2010023,49.3046692 48.739,48.806 C48.2769977,48.3073308 47.9213346,47.7060035 47.672,47.002 C47.4226654,46.2979965 47.298,45.5060044 47.298,44.626 C47.298,43.753329 47.4226654,42.9631702 47.672,42.2555 C47.9213346,41.5478298 48.2769977,40.9446692 48.739,40.446 C49.2010023,39.9473308 49.7601634,39.5623347 50.4165,39.291 C51.0728366,39.0196653 51.8079959,38.884 52.622,38.884 Z M52.622,48.828 C53.7220055,48.828 54.5433306,48.4595037 55.086,47.7225 C55.6286694,46.9854963 55.9,45.9570066 55.9,44.637 C55.9,43.30966 55.6286694,42.2756704 55.086,41.535 C54.5433306,40.7943296 53.7220055,40.424 52.622,40.424 C52.0646639,40.424 51.5806687,40.5193324 51.17,40.71 C50.7593313,40.9006676 50.4165014,41.1756649 50.1415,41.535 C49.8664986,41.8943351 49.6611673,42.336164 49.5255,42.8605 C49.3898327,43.384836 49.322,43.9769967 49.322,44.637 C49.322,45.2970033 49.3898327,45.8873307 49.5255,46.408 C49.6611673,46.9286693 49.8664986,47.3668316 50.1415,47.7225 C50.4165014,48.0781684 50.7593313,48.3513324 51.17,48.542 C51.5806687,48.7326676 52.0646639,48.828 52.622,48.828 Z M67.945,41.04 C67.886333,41.1206671 67.827667,41.1829998 67.769,41.227 C67.710333,41.2710002 67.6260006,41.293 67.516,41.293 C67.4059994,41.293 67.286834,41.2471671 67.1585,41.1555 C67.030166,41.0638329 66.867001,40.9630006 66.669,40.853 C66.470999,40.7429995 66.2308347,40.6421671 65.9485,40.5505 C65.6661653,40.4588329 65.3196687,40.413 64.909,40.413 C64.3663306,40.413 63.8860021,40.5101657 63.468,40.7045 C63.0499979,40.8988343 62.6998347,41.1793315 62.4175,41.546 C62.1351653,41.9126685 61.9225007,42.3563307 61.7795,42.877 C61.6364993,43.3976693 61.565,43.9806634 61.565,44.626 C61.565,45.30067 61.6419992,45.900164 61.796,46.4245 C61.9500008,46.948836 62.1663319,47.3888316 62.445,47.7445 C62.7236681,48.1001684 63.0628313,48.3714991 63.4625,48.5585 C63.8621687,48.7455009 64.3113308,48.839 64.81,48.839 C65.2866691,48.839 65.6789985,48.7821672 65.987,48.6685 C66.2950015,48.5548328 66.5516656,48.428334 66.757,48.289 C66.9623344,48.149666 67.1309993,48.0231672 67.263,47.9095 C67.3950007,47.7958328 67.5269993,47.739 67.659,47.739 C67.8276675,47.739 67.9523329,47.8013327 68.033,47.926 L68.583,48.641 C68.0989976,49.235003 67.4940036,49.6694986 66.768,49.9445 C66.0419964,50.2195014 65.2756707,50.357 64.469,50.357 C63.7723298,50.357 63.1251697,50.228668 62.5275,49.972 C61.9298303,49.7153321 61.4110022,49.3431691 60.971,48.8555 C60.5309978,48.3678309 60.1845013,47.7683369 59.9315,47.057 C59.6784987,46.3456631 59.552,45.5353379 59.552,44.626 C59.552,43.7973292 59.6674988,43.0310035 59.8985,42.327 C60.1295012,41.6229965 60.4668311,41.0161692 60.9105,40.5065 C61.3541689,39.9968308 61.9023301,39.5990014 62.555,39.313 C63.2076699,39.0269986 63.9556624,38.884 64.799,38.884 C65.5763372,38.884 66.2656637,39.0104987 66.867,39.2635 C67.4683363,39.5165013 67.9999977,39.8739977 68.462,40.336 L67.945,41.04 Z M76.998,40.897 C76.9099996,41.0583341 76.7743343,41.139 76.591,41.139 C76.4809994,41.139 76.356334,41.0986671 76.217,41.018 C76.077666,40.9373329 75.9071677,40.8475005 75.7055,40.7485 C75.5038323,40.6494995 75.2636681,40.5578338 74.985,40.4735 C74.7063319,40.3891662 74.3763352,40.347 73.995,40.347 C73.6649983,40.347 73.3680013,40.3891662 73.104,40.4735 C72.8399987,40.5578338 72.6145009,40.6733326 72.4275,40.82 C72.2404991,40.9666674 72.0975005,41.1371657 71.9985,41.3315 C71.8994995,41.5258343 71.85,41.7366655 71.85,41.964 C71.85,42.2500014 71.9324992,42.4883324 72.0975,42.679 C72.2625008,42.8696676 72.4806653,43.034666 72.752,43.174 C73.0233347,43.313334 73.3313316,43.4361661 73.676,43.5425 C74.0206684,43.6488339 74.3744982,43.7624994 74.7375,43.8835 C75.1005018,44.0045006 75.4543316,44.1383326 75.799,44.285 C76.1436684,44.4316674 76.4516653,44.6149989 76.723,44.835 C76.9943347,45.0550011 77.2124992,45.3244984 77.3775,45.6435 C77.5425008,45.9625016 77.625,46.3456644 77.625,46.793 C77.625,47.3063359 77.5333342,47.7811645 77.35,48.2175 C77.1666657,48.6538355 76.8953351,49.0314984 76.536,49.3505 C76.1766649,49.6695016 75.7366693,49.9206658 75.216,50.104 C74.6953307,50.2873343 74.0940034,50.379 73.412,50.379 C72.6346628,50.379 71.9306698,50.2525013 71.3,49.9995 C70.6693302,49.7464987 70.1340022,49.422002 69.694,49.026 L70.156,48.278 C70.214667,48.1826662 70.2843329,48.1093336 70.365,48.058 C70.4456671,48.0066664 70.5519993,47.981 70.684,47.981 C70.8160007,47.981 70.9553326,48.0323328 71.102,48.135 C71.2486674,48.2376672 71.426499,48.3513327 71.6355,48.476 C71.844501,48.6006673 72.0974985,48.7143328 72.3945,48.817 C72.6915015,48.9196672 73.0636644,48.971 73.511,48.971 C73.8923352,48.971 74.2259986,48.9215005 74.512,48.8225 C74.7980014,48.7234995 75.0363324,48.5896675 75.227,48.421 C75.4176676,48.2523325 75.5588329,48.0580011 75.6505,47.838 C75.7421671,47.6179989 75.788,47.3833346 75.788,47.134 C75.788,46.8259985 75.7055008,46.5711677 75.5405,46.3695 C75.3754992,46.1678323 75.1573347,45.9955007 74.886,45.8525 C74.6146653,45.7094993 74.3048351,45.5848339 73.9565,45.4785 C73.6081649,45.3721661 73.2525018,45.2603339 72.8895,45.143 C72.5264982,45.0256661 72.1708351,44.8918341 71.8225,44.7415 C71.4741649,44.5911659 71.1643347,44.4023345 70.893,44.175 C70.6216653,43.9476655 70.4035008,43.6671683 70.2385,43.3335 C70.0734992,42.9998317 69.991,42.5946691 69.991,42.118 C69.991,41.6926645 70.0789991,41.2838353 70.255,40.8915 C70.4310009,40.4991647 70.687665,40.1545015 71.025,39.8575 C71.362335,39.5604985 71.7766642,39.3240009 72.268,39.148 C72.7593358,38.9719991 73.3203302,38.884 73.951,38.884 C74.684337,38.884 75.3424971,38.9994988 75.9255,39.2305 C76.5085029,39.4615012 77.0126645,39.7786647 77.438,40.182 L76.998,40.897 Z" id="docs" fill="#002F6C"></path>
            </g>
        </g>
    </g>
</svg>